<svg xmlns="http://www.w3.org/2000/svg" width="1em" height="1em" viewBox="0 0 24 24">
  <g fill="currentColor" fill-opacity="0" stroke="currentColor" stroke-width="1.5" stroke-linecap="round" stroke-linejoin="round">

    <!-- Contorno del edificio -->
    <path stroke-dasharray="60" stroke-dashoffset="60" d="M20 17a2 2 0 0 0 2-2V4a2 2 0 0 0-2-2H9.46c.35.61.54 1.3.54 2h10v11h-9v2">
      <animate fill="freeze" attributeName="stroke-dashoffset" dur="0.7s" values="60;0"/>
    </path>

    <!-- Parte superior del edificio -->
    <path stroke-dasharray="20" stroke-dashoffset="20" d="M14 7v2H9v13H7v-6H5v6H3v-8H1.5V9a2 2 0 0 1 2-2">
      <animate fill="freeze" attributeName="stroke-dashoffset" begin="0.8s" dur="0.5s" values="20;0"/>
    </path>

    <!-- Cabeza del edificio -->
    <path stroke-dasharray="10" stroke-dashoffset="10" d="M8 4a2 2 0 0 1-2 2a2 2 0 0 1-2-2a2 2 0 0 1 2-2a2 2 0 0 1 2 2">
      <animate fill="freeze" attributeName="stroke-dashoffset" begin="1.3s" dur="0.4s" values="10;0"/>
    </path>

    <!-- Animación de relleno -->
    <animate fill="freeze" attributeName="fill-opacity" begin="1.7s" dur="0.5s" values="0;1"/>
  </g>
</svg>

